<?xml version="1.0" encoding="UTF-8"?>
<svg id="Layer_2" data-name="Layer 2" xmlns="http://www.w3.org/2000/svg" viewBox="0 0 50.37 10.42">
  <g id="Layer_1-2" data-name="Layer 1">
    <g>
      <path d="M9.3,10.38l-.14-.52-.18-.48-.21-.43-.24-.41-.26-.38-.29-.34-.31-.32-.33-.29-.35-.26c-.38-.24-.65-.4-.82-.49-.94,1.12-1.45,1.72-1.51,1.8-.02.02-.06.03-.12.03-.07,0-.11-.02-.11-.05v-.02s.06-.06.09-.1c.49-.59.97-1.17,1.46-1.75-.5-.25-1.2-.51-2.1-.78-.38-.11-.88-.23-1.5-.37-.8-.18-1.38-.33-1.75-.46-.21-.09-.38-.19-.5-.29l-.09-.12-.06-.21.05-.08c.12-.07.28-.12.47-.16l.52-.06c.77-.04,1.54-.06,2.3-.06s1.45,0,1.95.02c.98.01,1.97.02,2.96.03.09-.11.59-.64,1.49-1.59.37-.37.82-.8,1.35-1.29.19-.16.39-.32.59-.47.26-.19.5-.33.72-.43l.22-.05h.23s.16.09.16.09c.01.04.03.07.05.1v.11c0,.09-.02.18-.05.26-.11.22-.35.58-.73,1.08-.64.84-1.14,1.56-1.48,2.16.33-.01.71-.04,1.15-.09.08,0,.12.02.12.05,0,.02-.02.04-.08.05-.29.04-.71.07-1.25.11-.2.36-.38.73-.55,1.1-.11.28-.21.54-.31.82-.13.45-.25.9-.34,1.36-.06.5-.11,1-.13,1.51v.54c.04.38.08.76.12,1.14,0,.04-.04.05-.11.05s-.11-.01-.12-.04ZM6.2,6.16c.69-.81,1.34-1.55,1.95-2.22-2.85-.03-4.47-.04-4.86-.04-1.1,0-1.92.03-2.48.09-.26.03-.45.08-.56.15l-.02.04.06.18.07.1c.19.15.49.28.9.4.35.09,1.01.25,1.98.46,1.25.32,2.21.64,2.86.97l.1-.12ZM9.18,8.7l.02-.52c.05-.5.12-.98.21-1.47.08-.3.16-.6.25-.9.1-.28.2-.55.31-.83.19-.4.36-.76.53-1.07-.52.02-1.22.02-2.1.02-.87.97-1.58,1.78-2.12,2.43.39.2.82.47,1.28.81l.34.3.31.32.3.35.27.38.23.41.19.4c0-.06-.01-.27-.02-.63ZM10.55,3.81c.37-.63.81-1.29,1.34-1.98.33-.43.6-.81.82-1.15.06-.13.11-.26.13-.38v-.09s-.05-.08-.05-.08l-.05-.04c-.08,0-.21.04-.39.13-.16.1-.32.21-.48.32-.53.42-1.18,1-1.93,1.75-.49.51-.98,1.03-1.46,1.55h.35c.57,0,1.15-.01,1.72-.03Z"/>
      <path d="M11.78,4.46s-.04-.02-.05-.04c-.02-.01-.02-.03-.03-.05s-.01-.04-.01-.05v-.06s.05-.09.08-.15c.02-.05.05-.09.08-.14.02-.04.05-.09.08-.13s.06-.09.09-.14c.02-.02.04-.04.05-.06s.04-.05.05-.06.03-.04.04-.05c0-.01.01-.02.02-.02.02-.02.06-.04.12-.04.04,0,.07,0,.09.02.01.02.02.03.02.04v.02s-.04.04-.06.05-.03.04-.04.05c-.02.02-.03.04-.04.06-.02.02-.03.05-.05.06-.02.02-.04.05-.05.08l-.1.15s-.03.05-.05.08c-.02.05-.05.09-.06.14-.02.05-.03.08-.03.1.05-.04.11-.09.16-.14l.11-.09c.08-.08.15-.15.23-.22.04-.04.08-.07.12-.11.04-.04.08-.07.12-.11s.08-.07.12-.1c.07-.05.15-.11.22-.16l.12-.05.16-.02s.09.02.14.04c.03.02.06.06.09.11l.02.09s0,.04,0,.06c-.02.04-.03.09-.04.13l-.08.19s-.03.08-.03.1c0,.02,0,.04,0,.05s0,.04.01.05l.04.02s.06,0,.09-.01.06-.01.1-.02c.05-.01.15-.04.28-.08l.32-.11c.11-.05.22-.09.33-.13.05-.02.1-.05.15-.06s.1-.04.15-.06c.12-.05.2-.09.24-.11s.08-.04.12-.06c.03-.01.06-.02.1-.02.08,0,.12.02.12.05,0,.02-.01.03-.04.04h-.02s-.38.17-.38.17c-.04.01-.14.05-.3.12-.05.02-.11.05-.17.06-.11.04-.23.08-.34.13-.05.02-.11.04-.16.05-.06.02-.11.03-.16.05-.05.02-.1.03-.15.04-.05.01-.1.02-.15.03l-.14.02c-.1,0-.17-.03-.22-.06-.02-.01-.05-.04-.07-.09v-.05l.02-.12s.02-.04.03-.06c0-.02.02-.04.02-.06l.05-.13s.02-.04.02-.07,0-.06,0-.11v-.05s-.05-.05-.06-.06l-.16.09c-.08.05-.15.11-.22.18-.04.03-.08.06-.12.1l-.56.52s-.06.05-.09.08c-.07.05-.13.08-.2.09h-.11Z"/>
      <path d="M15.74,5.63c-.06,0-.1-.02-.11-.05,0-.05,0-.09.01-.14.05-.17.11-.33.17-.49l.32-.71.19-.41.43-.86.43-.83-.3.43c-.07.1-.14.19-.21.29-.07.1-.14.2-.21.29-.06.09-.13.19-.19.28-.11.16-.22.31-.33.46l-.21.3-.08.1c-.05.05-.11.1-.18.14l-.09.05c-.08.03-.15.04-.23.04h-.12c-.07-.04-.12-.06-.16-.1l-.05-.06s-.04-.09-.04-.15c0-.03,0-.06.01-.09s.02-.06.03-.1c.04-.08.09-.15.14-.22s.11-.14.18-.21l.09-.08.2-.11c.06-.03.13-.05.19-.06s.15-.02.24-.02h.08s.08.03.12.03l.17-.24c.06-.1.13-.19.21-.29s.14-.19.21-.29l.8-1.12c.09-.14.19-.28.29-.42l.19-.27.22.03h0s-.05.09-.1.18l-.12.22c-.05.09-.11.19-.15.28l-.18.33-.42.79-.54,1.07-.39.81c-.1.22-.2.44-.29.66-.06.16-.1.3-.12.41v.06s-.04.05-.1.05h-.02ZM15.29,4.39c.05-.03.1-.06.14-.1.02-.02.05-.05.07-.08s.05-.06.08-.1l.24-.35c.06-.08.11-.15.16-.23l.04-.05h-.03s-.09-.03-.18-.03c-.04,0-.08.01-.12.02-.05.02-.09.04-.15.07s-.11.07-.16.11c-.06.06-.11.12-.16.19s-.09.13-.13.21c-.02.06-.04.12-.04.18,0,.04.02.08.04.11.02.04.04.06.06.07.02.02.04.02.06.02.04,0,.07-.02.1-.04Z"/>
      <path d="M17.64,4.73c-.12-.02-.21-.06-.27-.11,0-.02-.01-.04-.02-.06,0-.12.09-.29.28-.52.02-.03.04-.05.06-.08s.04-.05.06-.08c.02-.02.04-.05.05-.08.02-.02.03-.05.05-.07.02-.02.03-.04.04-.06s.01-.03.02-.04,0-.01,0-.02,0-.01,0-.02-.01,0-.02,0l-.07.02s-.16.04-.36.09c-.15.02-.25.04-.28.04-.08,0-.13-.02-.16-.04l-.04-.05c0-.05.02-.1.06-.15.11-.13.25-.26.43-.36.06-.04.14-.06.24-.08.15,0,.22.05.22.13-.04.06-.08.12-.13.16-.02.02-.04.03-.06.05-.08.05-.15.1-.22.13-.04.02-.06.04-.09.06.15-.05.31-.08.47-.11.15,0,.23.04.23.11,0,.04-.04.12-.11.23-.06.08-.11.15-.15.21-.19.23-.29.4-.29.52,0,.02,0,.03.01.04,0,.01.04.03.09.05.09,0,.23-.02.4-.05.1-.04.21-.06.3-.09.12-.04.24-.09.36-.15.33-.14.74-.38,1.24-.71.03-.02.06-.02.11-.02.07,0,.11.02.11.05,0,.01-.04.05-.13.11-.08.05-.15.09-.22.14-.08.05-.15.09-.22.13s-.15.09-.22.13c-.52.28-.96.45-1.29.52l-.28.04h-.19ZM17.41,3.44c.16-.1.25-.18.29-.25v-.02c-.11.05-.22.12-.3.21-.06.05-.09.08-.11.1s-.02.03-.03.04l.15-.08Z"/>
      <path d="M20.14,4.78s-.09-.04-.13-.05-.08-.04-.1-.06c-.03-.03-.05-.06-.07-.09v-.11c0-.06.02-.15.05-.26.02-.05.04-.09.07-.14.02-.05.05-.09.08-.15l.15-.21.12-.13c.05-.06.12-.13.23-.23.04-.03.08-.05.12-.08s.08-.05.11-.06c-.02-.01-.04-.02-.04-.04s.01-.02.03-.04.03-.02.04-.04c0-.01.02-.02.03-.04,0,0,.02-.02.02-.03s.02-.02.03-.04c0-.01.02-.02.03-.04,0-.01.02-.02.03-.04,0-.01.02-.02.02-.04,0,0,.02-.04.05-.08,0-.01.02-.02.02-.04l.02-.04s.01-.02.02-.03c0,0,0-.01.01-.01.02-.03.06-.04.14-.04.05,0,.08.02.08.05,0,.01,0,.02-.01.04s-.02.03-.02.04c-.01.01-.04.04-.06.09l-.02.04-.06.08s-.02.02-.03.04c-.01.02-.02.03-.04.04-.02.02-.03.04-.04.05s-.03.04-.05.05c.06,0,.13.03.18.06.02.02.04.05.05.08s.02.06.02.09c0,.06-.02.1-.04.12-.02.03-.04.05-.05.08-.05.05-.11.11-.16.15-.12.08-.19.12-.21.13l-.11.06-.22.1-.18.08-.12.04h0l-.06.19-.02.11v.09s.05.06.05.06c.02.02.04.03.06.04.02.01.05.02.08.02.02,0,.05.01.08.02.12,0,.24,0,.34-.02l.36-.09c.22-.08.36-.13.41-.15l.22-.09.44-.22c.15-.09.29-.18.44-.27s.28-.19.42-.3c.03-.02.06-.02.11-.02h.05s.06.04.06.05-.08.08-.23.18c-.07.05-.18.13-.33.22l-.45.26c-.26.13-.46.22-.57.26l-.22.09-.42.13c-.13.03-.26.05-.39.06h-.18c-.08,0-.16,0-.25-.01ZM20.33,3.95c.07-.03.14-.06.21-.11.06-.04.13-.07.19-.11.06-.04.11-.08.15-.13.04-.04.08-.09.1-.14,0-.02.01-.04.02-.06,0-.04-.02-.06-.04-.09l-.02-.03s-.09.04-.16.09-.15.12-.22.19c-.08.08-.15.16-.21.25l-.12.18h.01l.09-.04Z"/>
      <path d="M30.46,9.48l-.02-.29c0-.21.02-.42.05-.62l.06-.33c.06-.23.13-.46.2-.69.09-.25.18-.49.28-.73.22-.51.45-1.01.69-1.51.25-.5.51-.99.77-1.48.12-.23.25-.46.36-.69s.23-.45.34-.67l.27-.6c.07-.18.13-.35.2-.53.04-.15.08-.3.11-.45v-.18s0-.16,0-.16l-.04-.13-.08-.1-.1-.07-.12-.04h-.13c-.12.02-.25.05-.37.09-.16.08-.32.16-.47.25-.18.12-.35.24-.52.37-.36.29-.74.64-1.13,1.05-.39.41-.78.83-1.15,1.27-.38.44-.74.88-1.1,1.34-.16.22-.32.43-.49.64l-.44.59-.67.93-.33.49-.22-.04.04-.05s.09-.13.15-.24l.36-.56.45-.75c.12-.21.23-.42.34-.62.14-.27.28-.54.4-.83.09-.24.18-.48.25-.73.02-.1.03-.19.04-.29,0-.08-.01-.15-.02-.22-.02-.05-.05-.1-.09-.14-.04-.02-.08-.04-.13-.05-.06,0-.12,0-.18.02-.09.03-.17.06-.25.09-.1.05-.19.11-.29.17-.22.16-.42.33-.62.51l-.31.32c-.21.23-.4.46-.59.69-.19.23-.38.47-.56.71-.15.2-.29.4-.44.61l-.29.44c-.04.05-.08.11-.11.16h0s-.06.04-.11.04c-.04,0-.07,0-.09-.02s-.03-.02-.03-.03l.32-.49c.13-.19.27-.39.41-.57.08-.11.16-.23.25-.34.18-.24.38-.47.57-.71.27-.31.47-.54.62-.69l.32-.3c.22-.19.42-.35.63-.47.1-.05.2-.11.3-.15.11-.03.22-.06.33-.08h.17l.16.04.12.06.08.08.05.09c.02.08.02.16.03.25,0,.1-.02.2-.04.3-.03.12-.06.23-.1.35-.08.22-.19.49-.33.8-.09.19-.19.38-.29.57.32-.42.65-.84.98-1.26.18-.22.37-.45.56-.67.19-.22.38-.44.57-.66l.58-.62c.19-.19.39-.38.58-.57.18-.16.37-.32.56-.48.18-.13.35-.26.53-.39l.25-.15.25-.11.25-.08.25-.04h.25s.21.08.21.08l.14.09.09.12.05.15.02.17v.19c-.05.15-.08.3-.12.45-.06.18-.13.36-.21.53-.15.33-.35.75-.6,1.27l-.37.7-.77,1.48c-.12.25-.24.5-.36.76s-.23.5-.33.75c-.1.24-.19.48-.27.72-.08.23-.14.46-.2.7-.04.21-.08.42-.11.64v.3s.01.29.01.29c0,.04-.04.05-.11.05s-.12-.02-.12-.05Z"/>
      <path d="M34.42,4.49l-.09-.02s-.05-.01-.08-.02-.06-.03-.08-.06l-.02-.07s0-.07,0-.09c0-.02,0-.05.02-.09.01-.04.02-.08.03-.11l.06-.13s-.05.03-.08.05-.06.04-.09.06l-.11.07s-.11.06-.22.11c-.06.01-.12.02-.18.02l-.12-.02-.07-.04s-.05-.06-.05-.11c0-.06.01-.12.03-.18s.04-.11.07-.16c.02-.03.04-.06.06-.09.02-.03.04-.06.07-.09.02-.03.05-.06.08-.09l.09-.09c.08-.06.14-.1.19-.12.06-.02.13-.04.21-.06h.11c.06,0,.12.02.18.04l.12.06s.03.02.04.04l.04.04.04.04s.02.03.02.04c0,0,0,.01,0,.02,0,.03-.04.05-.11.05-.06,0-.09-.01-.11-.04,0-.01-.02-.02-.03-.04-.01-.01-.03-.03-.05-.05l-.07-.05s-.05-.02-.08-.02h-.01s-.04,0-.05,0l-.05.02s-.04.02-.06.03-.05.03-.07.05c-.06.04-.12.09-.17.15s-.09.11-.13.18-.07.12-.08.16c-.01.02-.02.04-.02.06s0,.05-.01.06c0,.05,0,.09.02.11,0,0,.01.01.01.02h.03c.05-.02.11-.05.16-.08l.21-.13.16-.11.19-.14.04-.02s.02-.02.04-.02h.11s.08.04.08.04c0,.02,0,.03,0,.05s-.02.04-.03.05-.02.04-.04.06l-.06.13s-.03.06-.04.09c-.02.04-.03.07-.04.1,0,.04-.02.06-.02.09,0,.02,0,.03,0,.04v.06s0,.02.01.03,0,.02.01.03,0,.01.01.01h.15s.06,0,.09,0c.03,0,.06,0,.1-.01.05,0,.14-.02.26-.05.05-.02.11-.03.16-.04l.35-.13.19-.09c.09-.04.22-.12.41-.22.15-.1.3-.2.45-.3.03-.01.06-.02.1-.02h.05s.06.03.06.05c0,.01,0,.02-.02.03l-.23.16c-.1.06-.25.15-.44.26-.18.09-.32.16-.41.19-.16.06-.29.11-.37.13-.11.04-.22.06-.33.09-.13.03-.26.05-.4.05-.07,0-.12,0-.15,0Z"/>
      <path d="M37.08,4.73c-.12-.02-.21-.06-.27-.11,0-.02-.01-.04-.02-.06,0-.12.09-.29.28-.52.02-.03.04-.05.06-.08s.04-.05.06-.08c.02-.02.04-.05.05-.08.02-.02.03-.05.05-.07.02-.02.03-.04.04-.06s.01-.03.02-.04,0-.01,0-.02,0-.01,0-.02-.01,0-.02,0l-.07.02s-.16.04-.36.09c-.15.02-.25.04-.28.04-.08,0-.13-.02-.16-.04l-.04-.05c0-.05.02-.1.06-.15.11-.13.25-.26.43-.36.06-.04.14-.06.24-.08.15,0,.22.05.22.13-.04.06-.08.12-.13.16-.02.02-.04.03-.06.05-.08.05-.15.1-.22.13-.04.02-.06.04-.09.06.15-.05.31-.08.47-.11.15,0,.23.04.23.11,0,.04-.04.12-.11.23-.06.08-.11.15-.15.21-.19.23-.29.4-.29.52,0,.02,0,.03.01.04,0,.01.04.03.09.05.09,0,.23-.02.4-.05.1-.04.21-.06.3-.09.12-.04.24-.09.36-.15.33-.14.74-.38,1.24-.71.03-.02.06-.02.11-.02.07,0,.11.02.11.05,0,.01-.04.05-.13.11-.08.05-.15.09-.22.14-.08.05-.15.09-.22.13s-.15.09-.22.13c-.52.28-.96.45-1.29.52l-.28.04h-.19ZM36.86,3.44c.16-.1.25-.18.29-.25v-.02c-.11.05-.22.12-.3.21-.06.05-.09.08-.11.1s-.02.03-.03.04l.15-.08Z"/>
      <path d="M39.49,4.23s-.08-.01-.12-.03l-.06-.05c-.02-.05-.03-.09-.03-.12,0-.02,0-.05.01-.07,0-.02,0-.04.01-.06l.09-.2.16-.25s.02-.04.04-.06.03-.04.04-.05c0-.02.02-.03.03-.04,0-.02.01-.03.03-.05s.05-.02.09-.02c.02,0,.04,0,.06,0,.02,0,.04.01.05.02.01.01.02.02.02.03v.02h-.01s0,.02-.01.02l-.02.02s-.02.02-.03.04c-.01.02-.02.04-.04.06l-.09.13-.09.15-.07.15-.04.16s.01.05.02.08l.02.02c.08,0,.13,0,.17-.01s.08-.01.13-.02.09-.02.15-.03c.11-.03.23-.06.35-.09.06-.02.12-.04.18-.06s.12-.04.19-.05c.06-.02.12-.04.18-.06.05-.02.11-.04.17-.06.1-.04.2-.08.3-.12.07-.04.14-.06.22-.09.05-.04.11-.06.16-.06.02,0,.04,0,.06,0s.04.02.04.02c0,.01,0,.02,0,.02,0,.02-.05.05-.15.09l-.25.11-.32.12c-.06.02-.12.04-.18.06-.13.04-.25.08-.38.11-.12.04-.25.08-.36.11s-.23.05-.35.07l-.15.02c-.09,0-.16,0-.21-.01ZM40.08,2.62h0s0-.02,0-.02v-.02s0-.01,0-.02,0-.02,0-.03c0,0,0-.02.01-.02,0,0,0-.01.01-.02s0-.02.01-.03c0,0,.01-.02.02-.04.01-.01.04-.05.07-.11.02-.01.03-.03.05-.05.02-.02.05-.03.09-.03h.05s.07.04.08.05c0,0,0,.02-.02.04s-.03.04-.04.05c-.01.02-.02.03-.03.04s-.02.02-.02.03c0,.01-.01.02-.02.03,0,.01,0,.02-.01.03s-.01.02-.02.02,0,.02-.01.02,0,.02,0,.04h0s.01.01.01.01c0,.04-.04.05-.12.05-.04,0-.08-.01-.1-.04Z"/>
      <path d="M39.9,8.88l-.04-.05-.04-.15c0-.46.2-1.17.57-2.12.28-.71.56-1.25.82-1.62.04-.04.07-.07.11-.1.07-.03.12-.04.13-.04.08,0,.12.02.12.05-.08.05-.16.15-.26.28-.17.29-.31.55-.41.78l-.29.67c-.04.12-.09.24-.13.36-.05.12-.09.23-.12.35-.04.12-.08.23-.12.35l-.08.31c-.08.27-.11.52-.11.74,0,.04.01.07.02.1.08-.09.19-.25.35-.48.16-.28.32-.56.47-.84l.52-1.04c.38-.79.76-1.61,1.14-2.45-.18.1-.35.16-.48.19-.14.03-.26.05-.37.05l-.08-.02s-.08-.04-.09-.07c-.02-.05-.04-.08-.04-.1s0-.04-.01-.05c0-.1,0-.16.02-.2.02-.07.06-.14.11-.21.1-.13.22-.23.38-.31.04,0,.08-.02.12-.03.04,0,.07-.01.11-.01.12,0,.23.03.36.09.08.05.12.09.15.12h0s.05-.06.06-.09.03-.05.05-.07c.01-.02.03-.05.06-.1l.22.02h0s-.05.13-.11.26c-.11.22-.24.52-.4.9-.52,1.14-.97,2.09-1.38,2.87l-.25.49c-.26.45-.47.79-.64,1.02-.05.05-.1.11-.16.15l-.14.04-.15-.04ZM42.13,4.02c.09-.03.18-.08.26-.13.05-.03.1-.09.15-.18l.08-.12s-.04-.06-.06-.08c-.02-.01-.03-.02-.04-.04-.06-.05-.12-.09-.18-.12-.03-.01-.06-.02-.12-.04-.06.01-.11.03-.15.05-.15.1-.26.22-.33.36-.03.05-.04.12-.04.19,0,.12.05.18.11.18.04,0,.14-.03.31-.08Z"/>
      <path d="M43.66,5s-.05-.03-.07-.05l-.04-.06v-.08c-.01-.08,0-.15.01-.21l.04-.09s.02-.06.04-.09l.09-.18.05-.09c.03-.05.06-.11.1-.16l.11-.17s-.06.04-.12.09l-.32.21-.12.06c-.06.03-.13.05-.21.06-.03,0-.06,0-.09-.01s-.06-.02-.09-.05c-.01-.02-.02-.05-.04-.11,0-.03,0-.06.01-.09s.02-.08.05-.15c.03-.06.07-.13.11-.19.03-.03.05-.06.08-.1.02-.03.05-.06.09-.09.06-.06.14-.13.22-.18.06-.04.13-.08.21-.1.05-.02.11-.02.17-.02h.07s.12.05.12.05c.01.01.03.02.05.04s.04.02.05.04l.06.06s.02.02.02.03,0,.01.01.02h0s-.02.07-.08.11c-.03.02-.06.04-.09.04-.02,0-.03,0-.03-.02,0-.01-.02-.02-.03-.04-.02-.01-.03-.02-.04-.04-.02-.01-.03-.02-.04-.04-.01,0-.02-.02-.04-.02-.03-.02-.06-.03-.09-.04s-.08-.02-.13-.02c-.02,0-.04,0-.05.01s-.04.02-.06.02-.04.02-.05.03c-.02.02-.04.03-.06.05l-.11.11s-.08.09-.11.15c-.02.02-.04.05-.05.07-.02.05-.04.09-.06.14v.08s0,.05,0,.05c.02.04.04.06.05.06s.04.01.07.01c.04,0,.08-.02.11-.04s.06-.03.09-.04l.15-.1s.06-.04.09-.06c.03-.02.06-.04.09-.06s.06-.04.09-.07c.03-.02.06-.05.11-.08.04-.02.06-.04.06-.04.03-.02.06-.03.1-.03.02,0,.02.02.03.03,0,.02-.01.04-.02.06-.01.02-.02.04-.03.05-.01.02-.02.03-.03.05-.02.04-.04.08-.07.11l-.04.07-.09.15-.09.16-.08.16c-.03.08-.05.13-.05.16s-.01.06-.02.1v.06s.04.07.06.1c.02.01.05.02.07.02h.15s.23-.05.23-.05c.12-.02.35-.08.67-.16l1.35-.35,1.03-.23.53-.11.54-.09.52-.06c.25-.02.51-.04.76-.05.47.01.71.04.71.06,0,.02-.01.04-.03.06-.04.05-.08.07-.12.07l-.23-.02-.46-.02c-.16,0-.33.01-.49.02-.17.02-.34.03-.51.05-.35.05-.7.11-1.05.17-.43.09-.86.19-1.28.29l-1.35.35-.36.09c-.11.02-.21.05-.32.06-.11.02-.23.04-.35.06-.05,0-.1,0-.15-.01Z"/>
    </g>
  </g>
</svg>