<svg xmlns="http://www.w3.org/2000/svg" viewBox="0 0 64 64">
  <rect width="64" height="64" rx="14" fill="#0a0a0b"/>
  <path d="M22.7 33.5L22.5 33.6L22.4 33.7L22.2 33.8L21.9 33.8L21.7 33.8L21.4 33.8L21.1 33.7L20.8 33.6L20.4 33.5L20.1 33.3L19.7 33.1L19.3 32.9L19 32.6L18.6 32.3L18.2 31.9L17.9 31.5L17.5 31.1L17.2 30.7L17 30.3L16.8 29.9L16.6 29.5L16.5 29.1L16.5 28.8L16.5 28.5L16.6 28.3L16.7 28.1L17 28L17.2 27.9L17.5 27.9L17.9 27.9L18.3 28L18.7 28.2L19.1 28.4L19.5 28.6L20 28.9L20.4 29.1L20.8 29.4L21.2 29.7L21.5 30L21.8 30.4L22.1 30.7L22.4 31L22.6 31.3L22.8 31.6L22.9 31.9L23.1 32.2L23.1 32.5L23.2 32.7L23.2 33L23.2 33.2L23.1 33.4L23 33.6L22.9 33.7L22.7 33.8L22.5 33.9L22.3 34L22 34L21.8 34.1L21.5 34L21.1 34L20.8 33.8L20.4 33.7L20 33.5L19.6 33.3L19.2 33L18.8 32.7L18.4 32.3L18 31.9L17.7 31.5L17.3 31.1L17 30.6L16.7 30.2L16.5 29.7L16.4 29.3L16.3 28.9L16.2 28.6L16.3 28.3L16.4 28L16.6 27.8L16.8 27.7L17.1 27.7L17.5 27.7L17.9 27.8L18.3 27.9L18.8 28.1L19.2 28.3L19.7 28.5L20.1 28.8L20.6 29.1L21 29.4L21.4 29.8L21.8 30.1L22.1 30.5L22.4 30.8L22.7 31.1L22.9 31.5L23.1 31.8L23.3 32.1L23.4 32.4L23.4 32.7L23.5 32.9L23.5 33.2L23.4 33.4L23.4 33.6L23.3 33.8L23.1 34L22.9 34.1L22.7 34.2L22.5 34.3L22.2 34.3L21.9 34.3L21.6 34.3L21.3 34.2L20.9 34.1L20.5 33.9L20.1 33.7L19.6 33.5L19.2 33.2L18.8 32.9L18.3 32.5L17.9 32L17.5 31.6L17.1 31.1L16.8 30.6L16.5 30.1L16.3 29.6L16.1 29.2L16 28.8L16 28.4L16 28L16.2 27.8L16.4 27.6L16.6 27.5L17 27.4L17.4 27.5L17.8 27.5L18.3 27.7L18.7 27.9L19.2 28.1L19.7 28.4L20.2 28.7L20.7 29L21.2 29.4L21.6 29.7L22 30.1L22.4 30.5L22.7 30.8L23 31.2L23.2 31.5L23.4 31.9L23.6 32.2L23.7 32.5L23.8 32.8L23.8 33.1L23.8 33.4L23.8 33.6L23.7 33.8L23.6 34L23.4 34.2L23.2 34.4L23 34.5L22.8 34.6L22.5 34.6L22.2 34.6L21.9 34.6L21.5 34.6L21.1 34.4L20.7 34.3L20.3 34.1L19.8 33.8L19.3 33.5L18.9 33.2L18.4 32.8L17.9 32.3L17.5 31.8L17.1 31.3L16.7 30.8L16.3 30.2L16.1 29.7L15.9 29.2L15.7 28.7L15.7 28.3L15.7 27.9L15.8 27.6L16 27.4L16.3 27.2L16.7 27.2L17.1 27.2L17.5 27.3L18 27.4L18.6 27.6L19.1 27.9L19.7 28.2L20.2 28.5L20.7 28.9L21.2 29.2L21.7 29.6L22.1 30L22.5 30.4L22.9 30.8L23.2 31.1L23.5 31.5L23.7 31.9L23.9 32.2L24 32.6L24.1 32.9L24.1 33.2L24.2 33.5L24.1 33.7L24.1 34L24 34.2L23.8 34.4L23.7 34.6L23.5 34.7L23.2 34.9L23 34.9L22.6 35L22.3 35L21.9 35L21.5 34.9L21.1 34.7L20.6 34.6L20.2 34.3L19.7 34L19.2 33.7L18.6 33.3L18.1 32.8L17.6 32.3L17.1 31.8L16.7 31.2L16.3 30.6L15.9 30L15.7 29.4L15.5 28.9L15.3 28.4L15.3 27.9L15.4 27.5L15.6 27.2L15.8 27L16.2 26.9L16.6 26.8L17.1 26.9L17.6 27L18.2 27.2L18.8 27.5L19.4 27.8L19.9 28.1L20.5 28.5L21.1 28.9L21.6 29.3L22.1 29.7L22.6 30.1L23 30.5L23.3 30.9L23.7 31.3L23.9 31.7L24.1 32.1L24.3 32.5L24.4 32.8L24.5 33.2L24.6 33.5L24.6 33.8L24.6 34.1L24.5 34.3L24.4 34.6L24.2 34.8L24 35L23.8 35.1L23.6 35.3L23.3 35.3L23 35.4L22.6 35.4L22.2 35.4L21.8 35.3L21.3 35.2L20.8 35L20.3 34.7L19.8 34.4L19.2 34.1L18.7 33.7L18.1 33.2L17.6 32.6L17 32L16.5 31.4L16.1 30.7L15.7 30.1L15.3 29.4L15.1 28.8L15 28.2L14.9 27.7L15 27.2L15.2 26.9L15.4 26.6L15.8 26.5L16.3 26.5L16.8 26.5L17.4 26.7L18 26.9L18.7 27.2L19.3 27.5L20 27.9L20.6 28.3L21.2 28.7L21.8 29.2L22.4 29.6L22.8 30.1L23.3 30.5L23.7 30.9L24 31.4L24.3 31.8L24.6 32.2L24.8 32.6L24.9 33L25 33.3L25.1 33.7L25.1 34L25.1 34.3L25 34.6L24.9 34.8L24.8 35.1L24.6 35.3L24.4 35.5L24.2 35.7L23.9 35.8L23.6 35.9L23.2 35.9L22.8 35.9L22.4 35.9L21.9 35.8L21.4 35.6L20.9 35.4L20.3 35.2L19.7 34.8L19.1 34.4L18.5 33.9L17.9 33.4L17.3 32.8L16.7 32.1L16.1 31.4L15.6 30.7L15.2 29.9L14.9 29.2L14.6 28.5L14.5 27.8L14.4 27.2L14.5 26.8L14.8 26.4L15.1 26.2L15.5 26L16.1 26L16.7 26.1L17.4 26.3L18.1 26.6L18.8 27L19.5 27.3L20.3 27.8L21 28.2L21.6 28.7L22.3 29.2L22.8 29.7L23.4 30.1L23.8 30.6L24.3 31.1L24.6 31.5L24.9 32L25.2 32.4L25.4 32.8L25.5 33.2L25.6 33.6L25.7 34L25.7 34.3L25.7 34.6L25.7 35L25.6 35.2L25.4 35.5L25.3 35.8L25.1 36L24.8 36.2L24.5 36.3L24.2 36.4L23.9 36.5L23.5 36.6L23 36.6L22.6 36.5L22.1 36.4L21.5 36.2L20.9 36L20.3 35.7L19.7 35.3L19 34.8L18.3 34.3L17.6 33.6L16.9 32.9L16.3 32.2L15.7 31.4L15.1 30.5L14.6 29.6L14.3 28.8L14 28L13.9 27.3L13.9 26.7L14 26.2L14.3 25.8L14.7 25.6L15.3 25.5L15.9 25.5L16.6 25.7L17.4 26L18.2 26.3L19.1 26.7L19.9 27.2L20.7 27.7L21.5 28.2L22.2 28.7L22.9 29.2L23.5 29.8L24 30.3L24.5 30.8L25 31.3L25.4 31.8L25.7 32.2L25.9 32.7L26.1 33.1L26.3 33.5L26.4 34L26.5 34.3L26.5 34.7L26.5 35.1L26.5 35.4L26.4 35.7L26.3 36L26.1 36.3L25.9 36.5L25.7 36.8L25.4 37L25.1 37.1L24.8 37.3L24.4 37.4L24 37.4L23.6 37.4L23.1 37.4L22.5 37.3L21.9 37.1L21.3 36.9L20.6 36.5L19.9 36.1L19.2 35.6L18.4 35.1L17.6 34.4L16.9 33.6L16.1 32.7L15.4 31.8L14.7 30.8L14.1 29.8L13.7 28.8L13.3 27.9L13.1 27L13.1 26.2L13.2 25.6L13.5 25.2L14 24.9L14.6 24.8L15.3 24.8L16.2 25L17.1 25.3L18 25.7L19 26.2L19.9 26.7L20.9 27.3L21.7 27.9L22.6 28.5L23.3 29L24 29.6L24.7 30.2L25.2 30.7L25.7 31.3L26.1 31.8L26.5 32.3L26.8 32.8L27.1 33.2L27.3 33.7L27.4 34.1L27.5 34.6L27.6 35L27.6 35.4L27.6 35.7L27.6 36.1L27.5 36.4L27.4 36.7L27.3 37.1L27.1 37.3L26.9 37.6L26.7 37.8L26.5 38.1L26.2 38.2L25.8 38.4L25.5 38.5L25.1 38.6L24.6 38.7L24.1 38.7L23.6 38.6L23 38.5L22.3 38.3L21.6 38.1L20.9 37.7L20.1 37.3L19.2 36.7L18.3 36L17.4 35.2L16.5 34.3L15.6 33.3L14.8 32.2L14 31L13.3 29.7L12.7 28.5L12.2 27.3L12 26.3L12 25.3L12.2 24.6L12.5 24.1L13.1 23.8L13.9 23.8L14.8 23.9L15.9 24.2L17 24.6L18.1 25.1L19.3 25.7L20.4 26.4L21.5 27L22.5 27.7L23.5 28.4L24.3 29L25.1 29.6L25.8 30.3L26.4 30.8L27 31.4L27.5 32L27.9 32.5L28.2 33L28.5 33.5L28.7 34L28.9 34.4L29.1 34.9L29.2 35.3L29.3 35.7L29.4 36.1L29.4 36.5L29.4 36.9L29.4 37.3L29.4 37.6L29.3 38L29.3 38.3L29.2 38.6L29.1 38.9L29 39.2L28.8 39.5L28.7 39.7L28.5 40L28.3 40.2L28 40.4L27.8 40.6L27.5 40.8L27.2 40.9L26.8 41L26.4 41.1L25.9 41.2L25.4 41.2L24.9 41.2L24.2 41.1L23.5 40.9L22.8 40.7L22 40.3L21.1 39.9L20.1 39.3L19.1 38.6L18 37.7L16.8 36.7L15.7 35.5L14.5 34.1L13.4 32.6L12.3 30.9L11.4 29.2L10.7 27.5L10.1 25.9L9.9 24.5L10 23.3L10.3 22.5L11 22L11.9 21.8L13.1 21.9L14.5 22.3L15.9 22.9L17.4 23.6L19 24.4L20.5 25.2L21.9 26.1L23.3 26.9L24.5 27.7L25.6 28.4L26.6 29.2L27.5 29.8L28.3 30.5L29 31.1L29.6 31.7L30.2 32.2L30.7 32.8L31.1 33.3L31.4 33.8L31.7 34.2L32 34.7L32.3 35.1L32.5 35.5L32.7 35.9L32.9 36.3L33.1 36.6L33.3 37L33.6 37.3L33.8 37.6L34 37.9L34.2 38.2L34.5 38.4L34.8 38.7L35.1 38.9L35.4 39.1L35.8 39.2L36.2 39.3L36.7 39.4L37.1 39.4L37.7 39.4L38.3 39.4L38.9 39.2L39.6 39L40.4 38.7L41.2 38.3L42 37.8L42.9 37.2L43.9 36.4L44.9 35.6L45.9 34.5L46.8 33.4L47.8 32.1L48.6 30.8L49.4 29.4L50 28.1L50.5 26.8L50.7 25.6L50.7 24.6L50.4 23.9L49.9 23.4L49.2 23.2L48.3 23.2L47.2 23.4L46 23.8L44.8 24.3L43.5 24.9L42.3 25.6L41.1 26.3L39.9 27L38.8 27.8L37.8 28.4L36.9 29.1L36.1 29.8L35.4 30.4L34.7 31L34.2 31.6L33.7 32.1L33.3 32.7L32.9 33.2L32.6 33.7L32.3 34.2L32.1 34.6L31.9 35.1L31.8 35.5L31.7 35.9L31.6 36.3L31.5 36.7L31.4 37.1L31.3 37.5L31.3 37.8L31.3 38.2L31.2 38.5L31.2 38.9L31.2 39.2L31.2 39.5L31.2 39.8L31.2 40L31.2 40.3L31.2 40.6L31.2 40.9L31.2 41.1L31.3 41.3L31.3 41.6L31.3 41.8L31.3 42L31.4 42.2L31.4 42.4L31.4 42.6L31.5 42.8L31.5 43L31.6 43.2L31.7 43.4L31.8 43.5L31.8 43.7L31.9 43.9L32 44L32.2 44.1L32.3 44.3L32.5 44.4L32.6 44.5L32.8 44.6L33.1 44.7L33.3 44.8L33.6 44.9L34 44.9L34.3 45L34.8 45L35.2 45L35.8 44.9L36.4 44.8L37.1 44.6L37.9 44.4L38.7 44.1L39.7 43.6L40.8 43.1L41.9 42.3L43.2 41.4L44.6 40.2L46.1 38.8L47.6 37.1L49.2 35.1L50.7 32.9L52.1 30.5L53.3 28L54.3 25.6L54.9 23.3L55 21.5L54.7 20.1L53.9 19.3L52.7 19L51.1 19.2L49.2 19.9L47.2 20.7L45.1 21.8L43 22.9L40.9 24L39 25.1L37.2 26.1L35.6 27L34.2 27.8L32.9 28.6L31.7 29.2L30.7 29.9L29.9 30.4L29.1 31L28.4 31.4L27.8 31.9L27.3 32.3L26.8 32.7L26.4 33L26 33.4L25.6 33.6L25.2 33.9L24.9 34.2L24.5 34.4L24.2 34.5L23.8 34.7L23.5 34.8L23.1 34.8L22.7 34.9L22.2 34.8L21.8 34.8L21.3 34.7L20.9 34.5L20.4 34.3L19.9 34L19.3 33.7L18.8 33.3L18.3 32.9L17.8 32.4L17.3 31.9L16.8 31.3L16.4 30.7L16.1 30.1L15.8 29.5L15.6 29L15.4 28.5L15.4 28L15.4 27.6L15.6 27.3L15.8 27.1L16.1 26.9L16.5 26.9L17 26.9L17.5 27L18.1 27.2L18.6 27.5L19.2 27.8L19.8 28.1L20.4 28.4L21 28.8L21.5 29.2L22 29.6L22.4 30L22.9 30.4L23.2 30.9L23.5 31.3L23.8 31.6L24 32L24.2 32.4L24.4 32.7L24.5 33.1L24.5 33.4L24.5 33.7L24.5 34L24.4 34.2L24.3 34.5L24.2 34.7L24 34.9L23.8 35.1L23.6 35.2L23.3 35.3L23 35.3L22.6 35.4L22.2 35.3L21.8 35.3L21.3 35.1L20.9 35L20.4 34.7L19.8 34.4L19.3 34.1L18.7 33.7L18.2 33.2L17.6 32.6L17.1 32.1L16.6 31.5L16.2 30.8L15.8 30.1L15.4 29.5L15.2 28.9L15 28.3L15 27.8L15 27.3L15.2 27L15.4 26.7L15.8 26.6L16.2 26.5L16.8 26.6L17.3 26.7L17.9 26.9L18.6 27.2L19.2 27.5L19.9 27.9L20.5 28.3L21.1 28.7L21.7 29.1L22.3 29.6L22.7 30L23.2 30.4L23.6 30.9L23.9 31.3L24.2 31.7L24.5 32.1L24.7 32.5L24.8 32.9L24.9 33.2L25 33.6L25 33.9L25 34.2L25 34.5L24.9 34.8L24.7 35L24.6 35.2L24.3 35.4L24.1 35.6L23.8 35.7L23.5 35.8L23.2 35.8L22.8 35.8L22.3 35.8L21.9 35.7L21.4 35.6L20.9 35.4L20.3 35.1L19.7 34.8L19.1 34.3L18.5 33.9L17.9 33.3L17.3 32.7L16.7 32.1L16.2 31.4L15.7 30.6L15.3 29.9L14.9 29.2L14.7 28.5L14.5 27.8L14.5 27.3L14.6 26.8L14.8 26.5L15.2 26.2L15.6 26.1L16.1 26.1L16.7 26.2L17.4 26.4L18.1 26.7L18.8 27L19.5 27.4L20.2 27.8L20.9 28.2L21.6 28.7L22.2 29.2L22.8 29.7L23.3 30.1L23.8 30.6L24.2 31.1L24.5 31.5L24.8 32L25.1 32.4L25.3 32.8L25.4 33.2L25.5 33.6L25.6 33.9L25.6 34.3L25.6 34.6L25.6 34.9L25.5 35.2L25.3 35.5L25.2 35.7L24.9 35.9L24.7 36.1L24.4 36.2L24.1 36.4L23.7 36.4L23.3 36.5L22.9 36.5L22.4 36.4L21.9 36.3L21.4 36.1L20.8 35.8L20.2 35.5L19.5 35.1L18.9 34.7L18.2 34.1L17.5 33.5L16.9 32.8L16.2 32L15.6 31.2L15.1 30.4L14.6 29.5L14.3 28.7L14.1 27.9L13.9 27.2L14 26.6L14.1 26.2L14.4 25.8L14.9 25.6L15.4 25.6L16.1 25.6L16.8 25.8L17.6 26.1L18.4 26.4L19.2 26.8L20 27.3L20.8 27.8L21.5 28.3L22.2 28.8L22.9 29.3L23.5 29.8L24 30.4L24.5 30.9L24.9 31.3L25.3 31.8L25.6 32.3L25.9 32.7L26.1 33.2L26.2 33.6L26.3 34L26.4 34.4L26.4 34.7L26.4 35.1L26.3 35.4L26.2 35.7L26.1 36L25.9 36.3L25.7 36.5L25.5 36.7L25.2 36.9L24.9 37L24.6 37.2L24.2 37.2L23.8 37.3L23.3 37.3L22.8 37.2L22.2 37.1L21.6 36.9L21 36.6L20.3 36.3L19.6 35.8L18.9 35.3L18.1 34.7L17.3 34L16.6 33.2L15.9 32.3L15.2 31.4L14.6 30.4L14 29.4L13.6 28.4L13.3 27.5L13.2 26.7L13.2 26.1L13.4 25.5L13.8 25.1L14.3 24.9L15 24.9L15.7 25L16.6 25.2L17.5 25.6L18.4 26L19.3 26.5L20.3 27L21.2 27.6L22 28.1L22.8 28.7L23.5 29.3L24.2 29.9L24.8 30.4L25.3 30.9L25.8 31.5L26.2 32L26.5 32.5L26.8 32.9L27 33.4L27.2 33.8L27.3 34.3L27.4 34.7L27.4 35.1L27.4 35.5L27.4 35.8L27.4 36.2L27.3 36.5L27.2 36.8L27 37.1L26.8 37.4L26.6 37.6L26.4 37.8L26.1 38L25.7 38.2L25.4 38.3L25 38.4L24.5 38.5L24.1 38.5L23.5 38.4L22.9 38.3L22.3 38.1L21.6 37.9L20.9 37.5L20.1 37.1L19.3 36.5L18.4 35.9L17.5 35.1L16.6 34.2L15.8 33.2L14.9 32.2L14.1 31L13.4 29.8L12.9 28.6L12.4 27.5L12.2 26.4L12.2 25.5L12.3 24.8L12.7 24.3L13.2 24L14 23.9L14.9 24L15.8 24.3L16.9 24.7L18 25.2L19.1 25.8L20.2 26.4L21.3 27L22.3 27.7L23.2 28.3L24.1 29L24.9 29.6L25.6 30.2L26.2 30.8L26.7 31.4L27.2 31.9L27.6 32.4L27.9 32.9L28.2 33.4L28.5 33.9L28.7 34.4L28.8 34.8L28.9 35.2L29 35.7L29.1 36.1L29.1 36.5L29.1 36.8L29.1 37.2L29 37.5L28.9 37.9L28.9 38.2L28.8 38.5L28.6 38.8L28.5 39.1L28.3 39.3L28.1 39.6L27.9 39.8L27.6 40L27.3 40.2L27 40.3L26.6 40.5L26.2 40.6L25.8 40.6L25.3 40.7L24.7 40.6L24.1 40.6L23.5 40.4L22.7 40.2L21.9 39.9L21.1 39.4L20.1 38.9L19.1 38.2L18.1 37.4L17 36.4L15.9 35.3L14.8 34L13.7 32.5L12.7 31L11.8 29.4L11.1 27.8L10.6 26.3L10.3 24.9L10.4 23.8L10.7 23L11.3 22.4L12.1 22.2L13.2 22.3L14.4 22.6L15.8 23.1L17.2 23.8L18.7 24.5L20.1 25.3L21.5 26.1L22.8 26.9L24 27.6L25.1 28.4L26.1 29.1L27 29.8L27.8 30.4L28.5 31L29.1 31.6L29.6 32.2L30 32.7L30.4 33.2L30.8 33.7L31.1 34.2L31.3 34.7L31.6 35.1L31.8 35.5L32 35.9L32.2 36.3L32.3 36.7L32.5 37.1L32.7 37.4L32.8 37.8L33 38.1L33.2 38.4L33.4 38.7L33.6 39L33.8 39.2L34 39.4L34.3 39.7L34.6 39.9L34.9 40L35.3 40.2L35.6 40.3L36.1 40.4L36.6 40.4L37.1 40.4L37.7 40.4L38.3 40.3L39 40.1L39.8 39.8L40.6 39.5L41.5 39L42.4 38.4L43.4 37.6L44.5 36.7L45.6 35.7L46.7 34.5L47.8 33.1L48.8 31.6L49.7 30.1L50.5 28.5L51.1 27L51.4 25.6L51.5 24.4L51.4 23.4L50.9 22.8L50.2 22.4L49.2 22.4L48.1 22.6L46.8 23L45.4 23.6L44 24.2L42.6 25L41.2 25.8L39.9 26.5L38.7 27.3L37.5 28.1L36.5 28.8L35.6 29.5L34.8 30.1L34 30.8L33.4 31.4L32.9 31.9L32.4 32.5L32 33L31.6 33.5L31.3 34L31 34.5L30.8 34.9L30.6 35.4L30.4 35.8L30.2 36.2L30 36.6L29.9 36.9L29.8 37.3L29.6 37.7L29.5 38L29.3 38.3L29.2 38.6L29 38.9L28.8 39.2L28.6 39.4L28.4 39.7L28.2 39.9L27.9 40.1L27.6 40.3L27.3 40.5L27 40.6L26.6 40.8L26.1 40.9L25.7 40.9L25.1 40.9L24.6 40.8L23.9 40.7L23.2 40.6L22.5 40.3L21.6 39.9L20.7 39.4L19.7 38.8L18.7 38.1L17.6 37.2L16.5 36.1L15.3 34.9L14.2 33.5L13.1 31.9L12.2 30.3L11.3 28.6L10.7 27L10.3 25.5L10.1 24.2L10.3 23.2L10.7 22.5L11.5 22.1L12.5 22L13.6 22.2L15 22.7L16.4 23.3L17.9 24L19.4 24.8L20.8 25.6L22.2 26.4L23.5 27.2L24.7 28L25.7 28.7L26.7 29.4L27.6 30.1L28.3 30.7L29 31.3L29.5 31.9L30 32.4L30.5 32.9L30.9 33.5L31.2 33.9L31.5 34.4L31.8 34.8L32 35.3L32.2 35.7L32.4 36.1L32.6 36.5L32.8 36.8L33 37.2L33.1 37.5L33.3 37.8L33.5 38.1L33.8 38.4L34 38.7L34.2 38.9L34.5 39.2L34.8 39.4L35.1 39.5L35.5 39.7L35.9 39.8L36.3 39.9L36.8 40L37.3 40L37.9 39.9L38.5 39.8L39.2 39.6L40 39.3L40.8 38.9L41.7 38.5L42.6 37.9L43.6 37.1L44.6 36.2L45.6 35.2L46.7 34L47.7 32.7L48.7 31.3L49.5 29.9L50.2 28.4L50.7 27L51.1 25.7L51.1 24.6L50.9 23.7L50.5 23.1L49.8 22.8L48.8 22.8L47.8 22.9L46.5 23.3L45.2 23.9L43.9 24.5L42.5 25.2L41.2 26L40 26.7L38.8 27.5L37.7 28.2L36.8 28.9L35.9 29.6L35.1 30.2L34.4 30.8L33.8 31.4L33.3 32L32.8 32.5L32.4 33.1L32.1 33.6L31.8 34.1L31.6 34.5L31.4 35L31.2 35.4L31 35.8L30.9 36.2L30.7 36.6L30.6 37L30.5 37.4L30.4 37.8L30.3 38.1L30.2 38.4L30.1 38.7L30.1 39.1L30 39.4L29.9 39.6L29.7 39.9L29.6 40.2L29.5 40.4L29.3 40.7L29.2 40.9L29 41.1L28.8 41.3L28.6 41.5L28.3 41.7L28.1 41.9L27.7 42L27.4 42.1L27 42.2L26.6 42.3L26.1 42.3L25.6 42.3L25 42.2L24.3 42.1L23.6 41.9L22.8 41.6L21.9 41.2L20.9 40.7L19.9 40.1L18.7 39.2L17.5 38.2L16.3 37L15 35.6L13.7 34L12.5 32.3L11.4 30.4L10.4 28.4L9.6 26.5L9.2 24.8L9 23.3L9.2 22.1L9.8 21.4L10.6 21L11.8 21L13.2 21.3L14.8 21.9L16.5 22.7L18.2 23.5L19.9 24.4L21.5 25.3L23 26.2L24.4 27.1L25.7 27.9L26.9 28.7L27.9 29.4L28.8 30L29.6 30.7L30.3 31.3L31 31.8L31.5 32.4L32 32.9L32.4 33.3L32.8 33.8L33.1 34.2L33.4 34.6L33.7 35L34 35.4L34.3 35.7L34.6 36.1L34.8 36.4L35.1 36.6L35.4 36.9L35.7 37.1L36.1 37.3L36.4 37.5L36.8 37.6L37.3 37.7L37.7 37.8L38.2 37.8L38.7 37.7L39.3 37.6L39.9 37.5L40.6 37.2L41.3 36.9L42.1 36.4L42.9 35.9L43.7 35.3L44.5 34.6L45.3 33.8L46.1 32.8L46.9 31.8L47.6 30.8L48.2 29.7L48.7 28.6L49.1 27.6L49.3 26.7L49.3 25.9L49.1 25.3L48.8 24.8L48.3 24.5L47.6 24.5L46.8 24.5L45.9 24.8L44.9 25.1L43.9 25.6L42.9 26.1L41.9 26.7L40.9 27.2L40 27.9L39.1 28.5L38.3 29.1L37.6 29.7L37 30.2L36.4 30.8L35.9 31.4L35.4 31.9L35.1 32.4L34.7 32.9L34.5 33.4L34.3 33.8L34.1 34.3L34 34.7L33.9 35.1L33.9 35.5L33.8 35.9L33.9 36.3L33.9 36.6L34 37L34.1 37.3L34.2 37.6L34.4 37.9L34.6 38.1L34.8 38.4L35 38.6L35.3 38.8L35.6 39L36 39.1L36.4 39.3L36.8 39.3L37.3 39.4" fill="none" stroke="#c5ad83" stroke-width="1.6" stroke-linecap="round" stroke-linejoin="round"/>
</svg>
